#!OML:ASF H:\Martial Arts Walks\Project 1\Capture day 1\Session 1\male.ASF
:FULLY-SPECIFIED
:DEGREES
617
root -2.60916 14.2844 -3.57336 -8.80017 -27.3691 -5.48875
lowerback 23.1343 1.90089 6.81522
upperback 4.565 4.16313 1.64657
thorax -7.48036 1.83365 -3.26894
lowerneck -2.21824 1.75368 -3.52783
upperneck 4.26262 2.36219 2.61941
head 1.63555 1.17528 1.47278
rclavicle 3.52346e-014 2.94201e-014
rhumerus -50.0976 22.2377 -72.7659
rradius 86.916
rwrist 10.7926
rhand -7.90678 -35.2944
rfingers 7.12502
rthumb 17.9985 -64.4816
lclavicle 3.52346e-014 2.94201e-014
lhumerus -33.3674 0.416347 73.7222
lradius 70.3284
lwrist 22.3431
lhand -34.533 19.2327
lfingers 7.12502
lthumb -7.69405 49.0727
rfemur 4.6011 -5.23902 12.848
rtibia 60.2307
rfoot -35.5735 -28.1383
rtoes -30.2449
lfemur -79.6976 26.8444 -10.4125
ltibia 88.9969
lfoot 13.6273 -8.44116
ltoes -8.02442
618
root -2.57886 14.2658 -3.33972 -8.28041 -27.9302 -5.99604
lowerback 22.5117 2.04807 7.09029
upperback 4.41287 4.38131 1.65942
thorax -7.2811 1.9413 -3.43897
lowerneck -2.11659 1.84078 -3.42769
upperneck 4.28008 2.46619 2.73255
head 1.61961 1.23036 1.49188
rclavicle 6.29402e-014 -3.1408e-014
rhumerus -50.5444 21.9987 -73.1535
rradius 87.3108
rwrist 10.8412
rhand -7.88685 -35.3288
rfingers 7.12502
rthumb 18.0177 -64.5142
lclavicle 6.29402e-014 -3.1408e-014
lhumerus -34.7595 0.010562 73.8297
lradius 71.1392
lwrist 21.7274
lhand -34.5201 18.7017
lfingers 7.12502
lthumb -7.68155 48.5422
rfemur 5.47543 -4.55794 12.9103
rtibia 59.0792
rfoot -35.1927 -28.4667
rtoes -30.9283
lfemur -75.4065 26.355 -7.77626
ltibia 82.8922
lfoot 17.6549 -9.56492
ltoes -6.31648
619
root -2.54697 14.254 -3.10002 -7.79964 -28.546 -6.44897
lowerback 21.9018 2.21819 7.32904
upperback 4.26217 4.61762 1.65651
thorax -7.08276 2.0588 -3.60685
lowerneck -1.98954 1.91526 -3.40631
upperneck 4.31468 2.55415 2.87565
head 1.60433 1.27649 1.53383
rclavicle -3.21161e-014 -1.42131e-014
rhumerus -50.9777 21.7229 -73.5437
rradius 87.7468
rwrist 11.2195
rhand -7.63765 -35.2607
rfingers 7.12502
rthumb 18.2575 -64.4239
lclavicle -3.21161e-014 -1.42131e-014
lhumerus -36.1703 -0.386637 73.9602
lradius 71.9279
lwrist 21.4171
lhand -34.4424 18.1886
lfingers 7.12502
lthumb -7.60663 48.0319
rfemur 6.42323 -3.7501 12.9509
rtibia 57.755
rfoot -34.771 -28.7122
rtoes -31.411
lfemur -71.0382 25.7139 -5.1519
ltibia 76.7664
lfoot 21.9856 -9.97536
ltoes -3.53744
620
root -2.51326 14.2489 -2.85301 -7.3542 -29.1619 -6.81032
lowerback 21.2457 2.41256 7.54702
upperback 4.10424 4.87149 1.60647
thorax -6.85955 2.18693 -3.81119
lowerneck -1.85675 1.95056 -3.28674
upperneck 4.3951 2.58906 2.93576
head 1.60602 1.29584 1.53165
rclavicle -3.30417e-014 3.44891e-014
rhumerus -51.5128 21.3955 -73.9644
rradius 88.2572
rwrist 11.6932
rhand -7.54927 -35.1181
rfingers 7.12502
rthumb 18.3425 -64.2733
lclavicle -3.30417e-014 3.44891e-014
lhumerus -37.6145 -0.81542 74.1204
lradius 72.7128
lwrist 21.4257
lhand -34.5303 18.663
lfingers 7.12502
lthumb -7.69139 48.5032
rfemur 7.46476 -2.88629 12.9073
rtibia 56.2519
rfoot -34.2928 -28.8986
rtoes -31.7491
lfemur -66.6775 24.835 -2.59793
ltibia 70.6915
lfoot 26.1028 -9.48714
ltoes -1.68745
621
root -2.4768 14.2484 -2.60296 -6.80993 -29.7573 -7.2898
lowerback 20.6295 2.60844 7.88911
upperback 3.87637 5.16271 1.57751
thorax -6.71611 2.32591 -4.0711
lowerneck -1.79919 1.98693 -3.1981
upperneck 4.63886 2.62417 3.04402
head 1.67284 1.3158 1.55434
rclavicle 3.73187e-015 2.44909e-014
rhumerus -52.1415 20.963 -74.4017
rradius 88.7539
rwrist 12.2432
rhand -7.53838 -34.8286
rfingers 7.12502
rthumb 18.353 -63.9828
lclavicle 3.73187e-015 2.44909e-014
lhumerus -39.0429 -1.28301 74.305
lradius 73.3973
lwrist 21.7909
lhand -34.4478 17.2108
lfingers 7.12502
lthumb -7.61177 47.0538
rfemur 8.5081 -2.05655 12.9817
rtibia 54.6001
rfoot -33.5251 -29.2767
rtoes -32.2969
lfemur -62.4918 23.703 0.0494309
ltibia 64.8341
lfoot 29.5813 -7.92071
ltoes 0.132411
622
root -2.44009 14.2607 -2.34528 -6.38362 -30.2543 -7.21301
lowerback 19.7699 2.84718 7.75162
upperback 3.63521 5.37687 1.4148
thorax -6.49383 2.44203 -4.16781
lowerneck -1.73964 2.03386 -3.14959
upperneck 4.88205 2.67187 3.20509
head 1.73805 1.34268 1.60136
rclavicle 1.37317e-013 9.54166e-015
rhumerus -52.7184 20.5868 -74.8291
rradius 89.2629
rwrist 12.5674
rhand -7.48573 -34.5745
rfingers 7.12502
rthumb 18.4036 -63.724
lclavicle 1.37317e-013 9.54166e-015
lhumerus -40.4958 -1.54808 74.4752
lradius 74.0542
lwrist 22.0748
lhand -34.1285 15.9952
lfingers 7.12502
lthumb -7.30356 45.8492
rfemur 9.51155 -1.30863 12.4572
rtibia 52.8168
rfoot -32.6132 -29.6769
rtoes -32.4405
lfemur -58.4938 22.1518 2.12428
ltibia 59.3068
lfoot 31.6542 -5.24071
ltoes 3.50233
623
root -2.40103 14.257 -2.08109 -5.78615 -30.9381 -7.81574
lowerback 19.1131 3.06023 8.1978
upperback 3.40751 5.70399 1.40749
thorax -6.3059 2.59948 -4.45499
lowerneck -1.77318 2.06191 -3.07864
upperneck 5.23106 2.6933 3.36856
head 1.85537 1.35774 1.64862
rclavicle 3.62037e-014 2.98177e-015
rhumerus -53.3508 20.19 -75.287
rradius 89.7832
rwrist 12.7942
rhand -7.67493 -34.6338
rfingers 7.12502
rthumb 18.2216 -63.8003
lclavicle 3.62037e-014 2.98177e-015
lhumerus -41.8766 -1.77546 74.6189
lradius 74.585
lwrist 22.15
lhand -33.6807 14.7515
lfingers 7.12502
lthumb -6.87135 44.62
rfemur 10.6781 -0.415344 12.6303
rtibia 50.9446
rfoot -31.8549 -29.851
rtoes -32.5467
lfemur -54.5881 20.5508 4.8478
ltibia 54.3371
lfoot 31.8473 -3.44377
ltoes 7.03639
624
root -2.359 14.2574 -1.8114 -5.18576 -31.5406 -8.15035
lowerback 18.3275 3.2807 8.41596
upperback 3.11954 5.98044 1.33976
thorax -6.13152 2.73564 -4.65562
lowerneck -1.79226 2.08299 -3.05212
upperneck 5.63482 2.70273 3.56241
head 1.9883 1.36693 1.71444
rclavicle 2.91344e-014 -1.98785e-016
rhumerus -54.0308 19.8891 -75.7282
rradius 90.3115
rwrist 12.847
rhand -7.83206 -34.3155
rfingers 7.12502
rthumb 18.0704 -63.4961
lclavicle 2.91344e-014 -1.98785e-016
lhumerus -43.2217 -1.85721 74.7358
lradius 74.9494
lwrist 21.8803
lhand -33.0684 12.9508
lfingers 7.12502
lthumb -6.28025 42.8377
rfemur 11.7394 0.388118 12.4942
rtibia 49.0488
rfoot -31.1233 -29.97
rtoes -32.2347
lfemur -51.0693 18.5015 7.22297
ltibia 50.0201
lfoot 30.7282 -2.52456
ltoes 8.40467
625
root -2.31679 14.251 -1.5377 -4.53971 -32.1026 -8.51266
lowerback 17.5222 3.51735 8.60795
upperback 2.82973 6.26908 1.27645
thorax -5.94473 2.87913 -4.83109
lowerneck -1.93179 2.06978 -2.89749
upperneck 6.07931 2.66604 3.68158
head 2.16062 1.35569 1.73615
rclavicle -1.96548e-014 -3.37934e-015
rhumerus -54.6734 19.5182 -76.1457
rradius 90.8302
rwrist 12.6296
rhand -8.10963 -34.2221
rfingers 7.12502
rthumb 17.8034 -63.4271
lclavicle -1.96548e-014 -3.37934e-015
lhumerus -44.4683 -1.87499 74.8254
lradius 75.2474
lwrist 21.1771
lhand -32.2865 11.8719
lfingers 7.12502
lthumb -5.52538 41.7799
rfemur 12.7908 1.14182 12.3872
rtibia 47.1957
rfoot -30.5881 -29.968
rtoes -31.647
lfemur -48.0254 16.2452 9.45102
ltibia 46.5366
lfoot 29.7553 -1.78282
ltoes 8.21533
626
root -2.27619 14.2348 -1.2644 -3.85877 -32.701 -8.79985
lowerback 16.7244 3.80161 8.57129
upperback 2.48606 6.58599 1.26173
thorax -5.84343 3.03528 -4.83146
lowerneck -2.10266 2.09193 -2.91618
upperneck 6.55031 2.67325 3.95195
head 2.3444 1.3674 1.84046
rclavicle 7.60351e-015 3.97569e-016
rhumerus -55.3458 19.2406 -76.5075
rradius 91.3676
rwrist 12.1948
rhand -8.31548 -34.2605
rfingers 7.12502
rthumb 17.6053 -63.4834
lclavicle 7.60351e-015 3.97569e-016
lhumerus -45.6116 -1.84776 74.9632
lradius 75.3092
lwrist 20.1811
lhand -31.4217 10.5234
lfingers 7.12502
lthumb -4.69034 40.4515
rfemur 13.6657 1.8575 12.1906
rtibia 45.4889
rfoot -29.8437 -30.1838
rtoes -31.1666
lfemur -45.4897 14.0718 11.3494
ltibia 43.9455
lfoot 30.102 -0.578442
ltoes 9.24566
627
root -2.23256 14.2029 -0.98846 -3.06155 -33.2678 -9.29031
lowerback 15.9508 4.06603 8.64072
upperback 2.13044 6.90354 1.32233
thorax -5.76253 3.18829 -4.8072
lowerneck -2.29326 2.10259 -2.90217
upperneck 6.98899 2.66449 4.19321
head 2.52378 1.3722 1.92995
rclavicle 6.06293e-015 -1.25234e-014
rhumerus -56.0786 19.0198 -76.8087
rradius 92.0058
rwrist 11.5795
rhand -8.35484 -34.7414
rfingers 7.12502
rthumb 17.5674 -63.9677
lclavicle 6.06293e-015 -1.25234e-014
lhumerus -46.5902 -1.78624 75.1367
lradius 75.1388
lwrist 19.0339
lhand -30.5415 9.14925
lfingers 7.12502
lthumb -3.84043 39.0944
rfemur 14.4564 2.42308 12.0935
rtibia 43.9726
rfoot -29.5713 -30.0655
rtoes -30.0675
lfemur -43.6 12.3241 12.9585
ltibia 42.4127
lfoot 31.7917 0.00891462
ltoes 13.1704
628
root -2.18697 14.1563 -0.713273 -2.20692 -33.7633 -9.81055
lowerback 15.1925 4.32761 8.67056
upperback 1.76385 7.21509 1.42905
thorax -5.71116 3.3375 -4.7084
lowerneck -2.41566 2.08468 -2.88727
upperneck 7.28529 2.62495 4.33333
head 2.64624 1.35862 1.98145
rclavicle -2.29348e-014 -1.31198e-014
rhumerus -56.7854 18.8015 -77.0356
rradius 92.5924
rwrist 10.9803
rhand -8.49714 -35.1544
rfingers 7.12502
rthumb 17.4304 -64.3929
lclavicle -2.29348e-014 -1.31198e-014
lhumerus -47.37 -1.81933 75.4125
lradius 74.7651
lwrist 17.9905
lhand -29.8986 8.21366
lfingers 7.12502
lthumb -3.21951 38.1691
rfemur 15.0494 2.80131 11.947
rtibia 42.7658
rfoot -27.7013 -31.0661
rtoes -30.9034
lfemur -42.3882 11.3137 13.9731
ltibia 42.0402
lfoot 32.493 -0.745876
ltoes 13.0612
